<svg xmlns="http://www.w3.org/2000/svg" version="1.1" xmlns:xlink="http://www.w3.org/1999/xlink" xmlns:svgjs="http://svgjs.dev/svgjs" width="1000" height="999" viewBox="0 0 1000 999"><g transform="matrix(1,0,0,1,-0.215743440233382,-0.21552769679306039)"><svg viewBox="0 0 343 343" data-background-color="#ffffff" preserveAspectRatio="xMidYMid meet" height="999" width="1000" xmlns="http://www.w3.org/2000/svg" xmlns:xlink="http://www.w3.org/1999/xlink"><g id="tight-bounds" transform="matrix(1,0,0,1,0.0740000000000407,0.07400000000001228)"><svg viewBox="0 0 342.85155851775386 342.85155851775386" height="342.85155851775386" width="342.85155851775386"><g><svg></svg></g><g><svg viewBox="0 0 342.85155851775386 342.85155851775386" height="342.85155851775386" width="342.85155851775386"><g><path d="M0 171.426c0-94.676 76.75-171.426 171.426-171.426 94.676 0 171.426 76.75 171.426 171.426 0 94.676-76.75 171.426-171.426 171.426-94.676 0-171.426-76.75-171.426-171.426zM171.426 336.913c91.396 0 165.487-74.091 165.487-165.487 0-91.396-74.091-165.487-165.487-165.487-91.396 0-165.487 74.091-165.487 165.487 0 91.396 74.091 165.487 165.487 165.487z" data-fill-palette-color="tertiary" fill="#915eff" stroke="transparent"></path><ellipse rx="164.56874808852186" ry="164.56874808852186" cx="171.42577925887693" cy="171.42577925887693" fill="#915eff" stroke="transparent" stroke-width="0" fill-opacity="1" data-fill-palette-color="tertiary"></ellipse></g><g transform="matrix(1,0,0,1,64.84655864529837,85.22156005171408)"><svg viewBox="0 0 213.1584412271571 172.4084384143257" height="172.4084384143257" width="213.1584412271571"><g><svg viewBox="0 0 213.1584412271571 172.4084384143257" height="172.4084384143257" width="213.1584412271571"><g><svg viewBox="0 0 213.1584412271571 172.4084384143257" height="172.4084384143257" width="213.1584412271571"><g transform="matrix(1,0,0,1,0,106.55533162356573)"><svg viewBox="0 0 213.1584412271571 65.85310679075997" height="65.85310679075997" width="213.1584412271571"><g><svg viewBox="0 0 213.1584412271571 65.85310679075997" height="65.85310679075997" width="213.1584412271571"><g><svg viewBox="0 0 213.1584412271571 65.85310679075997" height="65.85310679075997" width="213.1584412271571"><g transform="matrix(1,0,0,1,0,0)"><svg width="213.1584412271571" viewBox="2.75 -36.5 120.24 37.15" height="65.85310679075997" data-palette-color="#ffffff"><path d="M15.8 0.65L15.8 0.65Q12 0.65 9.05-1.13 6.1-2.9 4.42-5.95 2.75-9 2.75-12.75L2.75-12.75Q2.75-16.5 4.42-19.55 6.1-22.6 9.05-24.38 12-26.15 15.8-26.15L15.8-26.15Q19.65-26.15 22.6-24.38 25.55-22.6 27.23-19.55 28.9-16.5 28.9-12.75L28.9-12.75Q28.9-9 27.23-5.95 25.55-2.9 22.6-1.13 19.65 0.65 15.8 0.65ZM15.8-1.45L15.8-1.45Q18.95-1.45 21.35-2.95 23.75-4.45 25.13-7.03 26.5-9.6 26.5-12.75L26.5-12.75Q26.5-15.95 25.13-18.5 23.75-21.05 21.35-22.55 18.95-24.05 15.8-24.05L15.8-24.05Q12.7-24.05 10.28-22.55 7.85-21.05 6.5-18.48 5.15-15.9 5.15-12.75L5.15-12.75Q5.15-9.55 6.5-7 7.85-4.45 10.28-2.95 12.7-1.45 15.8-1.45ZM38.05 0L35.7 0 35.7-36.5 38.05-36.5 38.05 0ZM58.8 0.65L58.8 0.65Q55.5 0.65 52.6-0.85 49.7-2.35 47.9-5.3 46.1-8.25 46.1-12.55L46.1-12.55 46.1-36.5 48.45-36.5 48.45-19.55 48.6-19.55Q49.5-21.45 51.07-22.93 52.65-24.4 54.72-25.25 56.8-26.1 59.05-26.1L59.05-26.1Q62.4-26.1 65.25-24.53 68.09-22.95 69.84-20 71.59-17.05 71.59-12.85L71.59-12.85Q71.59-9.55 70.55-7.03 69.5-4.5 67.7-2.8 65.9-1.1 63.6-0.23 61.3 0.65 58.8 0.65ZM58.75-1.45L58.75-1.45Q61.45-1.45 63.82-2.75 66.2-4.05 67.7-6.58 69.2-9.1 69.2-12.75L69.2-12.75Q69.2-16.25 67.72-18.78 66.25-21.3 63.9-22.65 61.55-24 58.85-24L58.85-24Q56.2-24 53.82-22.7 51.45-21.4 49.97-18.88 48.5-16.35 48.5-12.65L48.5-12.65Q48.5-9 49.95-6.5 51.4-4 53.75-2.73 56.1-1.45 58.75-1.45ZM90.14 0.65L90.14 0.65Q86.34 0.65 83.39-1.13 80.44-2.9 78.77-5.95 77.09-9 77.09-12.75L77.09-12.75Q77.09-16.5 78.77-19.55 80.44-22.6 83.39-24.38 86.34-26.15 90.14-26.15L90.14-26.15Q93.99-26.15 96.94-24.38 99.89-22.6 101.57-19.55 103.24-16.5 103.24-12.75L103.24-12.75Q103.24-9 101.57-5.95 99.89-2.9 96.94-1.13 93.99 0.65 90.14 0.65ZM90.14-1.45L90.14-1.45Q93.29-1.45 95.69-2.95 98.09-4.45 99.47-7.03 100.84-9.6 100.84-12.75L100.84-12.75Q100.84-15.95 99.47-18.5 98.09-21.05 95.69-22.55 93.29-24.05 90.14-24.05L90.14-24.05Q87.04-24.05 84.62-22.55 82.19-21.05 80.84-18.48 79.49-15.9 79.49-12.75L79.49-12.75Q79.49-9.55 80.84-7 82.19-4.45 84.62-2.95 87.04-1.45 90.14-1.45ZM122.84 0L117.59 0Q114.19 0 112.27-1.95 110.34-3.9 110.34-7.25L110.34-7.25 110.34-31.9 112.74-31.9 112.74-7.7Q112.74-5 114.09-3.55 115.44-2.1 118.14-2.1L118.14-2.1 122.84-2.1 122.84 0ZM122.99-23.4L105.89-23.4 105.89-25.5 122.99-25.5 122.99-23.4Z" opacity="1" transform="matrix(1,0,0,1,0,0)" fill="#ffffff" class="undefined-text-0" data-fill-palette-color="quaternary" id="text-0"></path></svg></g></svg></g></svg></g></svg></g><g transform="matrix(1,0,0,1,59.678880361273386,0)"><svg viewBox="0 0 93.80068050461034 91.00899358483028" height="91.00899358483028" width="93.80068050461034"><g><svg xmlns="http://www.w3.org/2000/svg" xmlns:xlink="http://www.w3.org/1999/xlink" version="1.1" x="0" y="0" viewBox="7 8.3 84 81.5" style="enable-background:new 0 0 98 98;" xml:space="preserve" height="91.00899358483028" width="93.80068050461034" class="icon-icon-0" data-fill-palette-color="quaternary" id="icon-0"><g fill="#ffffff" data-fill-palette-color="quaternary"><circle cx="61" cy="49.8" r="4.5" fill="#ffffff" data-fill-palette-color="quaternary"></circle><rect x="7" y="47.7" width="10.3" height="23" fill="#ffffff" data-fill-palette-color="quaternary"></rect><rect x="37.3" y="75.3" width="23" height="14.5" fill="#ffffff" data-fill-palette-color="quaternary"></rect><circle cx="37" cy="49.8" r="4.5" fill="#ffffff" data-fill-palette-color="quaternary"></circle><rect x="80.3" y="47.7" width="10.7" height="23" fill="#ffffff" data-fill-palette-color="quaternary"></rect><path d="M50.5 17c1.7-0.6 3-2.3 3-4.2 0-2.5-2-4.5-4.5-4.5s-4.5 2-4.5 4.5c0 2 1.3 3.6 3 4.2v17.3H20.3v55.5h14v-16c0-0.8 0.7-1.5 1.5-1.5h26c0.8 0 1.5 0.7 1.5 1.5v16h14V34.3H50.5V17zM37 57.3c-4.1 0-7.5-3.4-7.5-7.5s3.4-7.5 7.5-7.5 7.5 3.4 7.5 7.5S41.1 57.3 37 57.3zM61 42.3c4.1 0 7.5 3.4 7.5 7.5s-3.4 7.5-7.5 7.5-7.5-3.4-7.5-7.5S56.9 42.3 61 42.3z" fill="#ffffff" data-fill-palette-color="quaternary"></path></g></svg></g></svg></g><g></g></svg></g></svg></g></svg></g></svg></g><defs></defs></svg><rect width="342.85155851775386" height="342.85155851775386" fill="none" stroke="none" visibility="hidden"></rect></g></svg></g></svg>